<?xml version="1.0" encoding="UTF-8"?>
<svg width="48px" height="48px" viewBox="0 0 48 48" version="1.1" xmlns="http://www.w3.org/2000/svg" xmlns:xlink="http://www.w3.org/1999/xlink">
    <!-- Generator: Sketch 61 (89581) - https://sketch.com -->
    <title>ic_android</title>
    <desc>Created with Sketch.</desc>
    <g id="email-template" stroke="none" stroke-width="1" fill="none" fill-rule="evenodd">
        <g id="email-template-copy" transform="translate(-67.000000, -624.000000)" fill="#114C73" fill-rule="nonzero">
            <g id="android" transform="translate(74.000000, 628.000000)">
                <path d="M2.51075812,12.9343682 C1.82274368,12.9343682 1.23898917,13.174296 0.759133574,13.6541516 C0.279277978,14.1340072 0.0392779783,14.7098195 0.0392779783,15.3818773 L0.0392779783,25.7005776 C0.0392779783,26.3894585 0.279205776,26.9727076 0.759133574,27.4526354 C1.23898917,27.932491 1.82274368,28.172491 2.51075812,28.172491 C3.19826715,28.172491 3.77848375,27.9325632 4.25090253,27.4526354 C4.72238267,26.9727798 4.95877256,26.3894585 4.95877256,25.7005776 L4.95877256,15.3818773 C4.95877256,14.7097473 4.71884477,14.1340072 4.23891697,13.6541516 C3.75898917,13.174296 3.18281588,12.9343682 2.51075812,12.9343682 Z" id="Path"></path>
                <path d="M22.3806498,3.67126354 L24.0844765,0.528158845 C24.1963177,0.320072202 24.1565343,0.160505415 23.9647653,0.0483032491 C23.7566065,-0.0484476534 23.5966787,0.000577617329 23.4849097,0.191913357 L21.7572563,3.3601444 C20.2370397,2.68801444 18.6291697,2.35133574 16.9336462,2.35133574 C15.2377617,2.35133574 13.6297473,2.68808664 12.1101083,3.3601444 L10.3823827,0.191913357 C10.2701083,0.000577617329 10.1101805,-0.0480144404 9.90252708,0.0483032491 C9.71032491,0.16101083 9.67054152,0.320072202 9.78281588,0.528158845 L11.4867148,3.67126354 C9.75898917,4.55234657 8.38296029,5.77942238 7.35913357,7.35516245 C6.33530686,8.93176895 5.8231769,10.654657 5.8231769,12.5268592 L28.02,12.5268592 C28.02,10.6550903 27.5077978,8.93212996 26.4840433,7.35516245 C25.4601444,5.77942238 24.0920578,4.55234657 22.3806498,3.67126354 Z M12.5298917,8.24296029 C12.3456318,8.42765343 12.1255596,8.51956679 11.8697473,8.51956679 C11.6134296,8.51956679 11.3978339,8.42765343 11.2219495,8.24296029 C11.046065,8.05913357 10.9581227,7.8399278 10.9581227,7.5832491 C10.9581227,7.32743682 11.046065,7.10779783 11.2219495,6.92353791 C11.3978339,6.73971119 11.613935,6.64779783 11.8697473,6.64779783 C12.1255596,6.64779783 12.3456318,6.73971119 12.5298917,6.92353791 C12.7137184,7.10823105 12.806065,7.32743682 12.806065,7.5832491 C12.8055596,7.83949458 12.7132852,8.05913357 12.5298917,8.24296029 Z M22.6444043,8.24296029 C22.4681588,8.42765343 22.2520578,8.51956679 21.9966787,8.51956679 C21.7402888,8.51956679 21.5202888,8.42765343 21.3363899,8.24296029 C21.1522022,8.05913357 21.0602888,7.8399278 21.0602888,7.5832491 C21.0602888,7.32743682 21.1522022,7.10779783 21.3363899,6.92353791 C21.5202888,6.73971119 21.7402888,6.64779783 21.9966787,6.64779783 C22.252491,6.64779783 22.4680866,6.73971119 22.6444043,6.92353791 C22.8204332,7.10823105 22.908231,7.32743682 22.908231,7.5832491 C22.908231,7.83949458 22.820361,8.05913357 22.6444043,8.24296029 Z" id="Shape"></path>
                <path d="M5.91848375,29.37213 C5.91848375,30.1087365 6.17429603,30.7322744 6.68599278,31.2439711 C7.19812274,31.7556679 7.82166065,32.0114801 8.55776173,32.0114801 L10.3336462,32.0114801 L10.3579783,37.4594224 C10.3579783,38.1473646 10.5979061,38.7315523 11.0777617,39.2114801 C11.5576173,39.6914079 12.1338628,39.9313357 12.8054874,39.9313357 C13.4930686,39.9313357 14.0771841,39.6914079 14.5571119,39.2114801 C15.0370397,38.7315523 15.2769675,38.1474368 15.2769675,37.4594224 L15.2769675,32.0119856 L18.5884477,32.0119856 L18.5884477,37.4594224 C18.5884477,38.1473646 18.8283032,38.7315523 19.308231,39.2114801 C19.7881588,39.6914079 20.371769,39.9313357 21.0598556,39.9313357 C21.7474368,39.9313357 22.3315523,39.6914079 22.8114801,39.2114801 C23.2914079,38.7315523 23.5312635,38.1474368 23.5312635,37.4594224 L23.5312635,32.0119856 L25.3311191,32.0119856 C26.0509025,32.0119856 26.666426,31.7561011 27.1790614,31.2444043 C27.6906859,30.7327076 27.9466426,30.1091697 27.9466426,29.3726354 L27.9466426,13.3898917 L5.91848375,13.3898917 L5.91848375,29.37213 Z" id="Path"></path>
                <path d="M31.3555957,12.9343682 C30.6834657,12.9343682 30.1077256,13.1707581 29.6277978,13.6422383 C29.1479422,14.1145848 28.9080144,14.6948014 28.9080144,15.3818773 L28.9080144,25.7005776 C28.9080144,26.3894585 29.14787,26.9727076 29.6277978,27.4526354 C30.1077256,27.9325632 30.6838989,28.172491 31.3555957,28.172491 C32.0431769,28.172491 32.6272924,27.9325632 33.1072202,27.4526354 C33.587148,26.9727076 33.8270036,26.3894585 33.8270036,25.7005776 L33.8270036,15.3818773 C33.8270036,14.6947292 33.587148,14.1145848 33.1072202,13.6422383 C32.6272924,13.1707581 32.0431769,12.9343682 31.3555957,12.9343682 Z" id="Path"></path>
            </g>
        </g>
    </g>
</svg>