<?xml version="1.0" encoding="UTF-8"?>
<svg width="48px" height="48px" viewBox="0 0 48 48" version="1.1" xmlns="http://www.w3.org/2000/svg" xmlns:xlink="http://www.w3.org/1999/xlink">
    <!-- Generator: Sketch 61 (89581) - https://sketch.com -->
    <title>ic_admin</title>
    <desc>Created with Sketch.</desc>
    <g id="email-template" stroke="none" stroke-width="1" fill="none" fill-rule="evenodd">
        <g id="email-template-copy" transform="translate(-222.000000, -624.000000)" fill-rule="nonzero">
            <g id="security" transform="translate(227.000000, 629.000000)">
                <path d="M18.3472941,37.7644462 C9.97465314,32.9824584 3.79105882,24.8836024 1.38187424,15.5422312 L0.0147991886,10.2546045 L0.632665314,10.1133955 C3.18305882,9.52944422 5.69645436,8.6377931 8.10317241,7.4649574 C10.4784422,6.30507099 12.7242191,4.87016633 14.7794564,3.19970791 L18.653144,0.0536470588 L22.526215,3.19970791 C26.6354564,6.53692495 31.5278215,8.92761055 36.6736227,10.1133955 L37.2908722,10.2552211 L35.9231805,15.5422312 C33.5146126,24.8829858 27.3310183,32.9824584 18.9583773,37.7644462 L18.653144,37.9389533 L18.3472941,37.7644462 Z" id="Path" fill="#114C73"></path>
                <path d="M18.653144,32.9127789 L16.1866126,30.4462475 L16.1866126,16.9111562 C14.3613793,16.0047059 13.1034483,14.1239757 13.1034483,11.9472617 C13.1034483,8.88259635 15.5884787,6.39756592 18.653144,6.39756592 C21.7178093,6.39756592 24.2028398,8.88259635 24.2028398,11.9472617 C24.2028398,14.3644625 22.6550913,16.4116836 20.5030426,17.1763083 L20.5030426,19.9634888 L22.3529412,21.8133874 L20.5030426,23.663286 L22.3529412,25.5131846 L20.5030426,27.3630832 L22.3529412,29.2129817 L18.653144,32.9127789 Z M19.8864097,10.0973631 C19.8864097,9.41906694 19.3314402,8.86409736 18.653144,8.86409736 C17.9748479,8.86409736 17.4198783,9.41906694 17.4198783,10.0973631 C17.4198783,10.7756592 17.9748479,11.3306288 18.653144,11.3306288 C19.3314402,11.3306288 19.8864097,10.7756592 19.8864097,10.0973631 Z" id="Shape" fill="#F7F7F7"></path>
                <path d="M27.7867099,25.7394888 L26.7859148,25.0192617 C28.1172252,23.1693631 29.2499797,21.1782556 30.151497,19.1008195 L31.2824016,19.5922759 C30.3457363,21.7498742 29.1698174,23.8180609 27.7867099,25.7394888 L27.7867099,25.7394888 Z" id="Path" fill="#F7F7F7"></path>
                <path d="M31.7972901,18.3355781 L30.6472698,17.8909858 C30.8754239,17.2996349 31.0893955,16.689785 31.2830183,16.0774686 L32.4583205,16.4499148 C32.2572982,17.0862799 32.0346937,17.7201785 31.7972901,18.3355781 L31.7972901,18.3355781 Z" id="Path" fill="#F7F7F7"></path>
                <g id="Group" transform="translate(18.036511, 21.196755)" fill="#114C73">
                    <polygon id="Path" points="1.23326572 7.39959432 0 7.39959432 0 11.0993915 0.61663286 11.7160243 1.23326572 11.0993915"></polygon>
                    <polygon id="Path" points="0 4.93306288 1.23326572 4.93306288 1.23326572 6.1663286 0 6.1663286"></polygon>
                    <polygon id="Path" points="0 2.46653144 1.23326572 2.46653144 1.23326572 3.69979716 0 3.69979716"></polygon>
                    <polygon id="Path" points="0 0 1.23326572 0 1.23326572 1.23326572 0 1.23326572"></polygon>
                </g>
            </g>
        </g>
    </g>
</svg>