<?xml version="1.0" encoding="UTF-8"?>
<svg width="48px" height="48px" viewBox="0 0 48 48" version="1.1" xmlns="http://www.w3.org/2000/svg" xmlns:xlink="http://www.w3.org/1999/xlink">
    <!-- Generator: Sketch 61 (89581) - https://sketch.com -->
    <title>ic_ios</title>
    <desc>Created with Sketch.</desc>
    <g id="email-template" stroke="none" stroke-width="1" fill="none" fill-rule="evenodd">
        <g id="email-template-copy" transform="translate(-139.000000, -624.000000)" fill="#114C73" fill-rule="nonzero">
            <g id="brand" transform="translate(147.000000, 628.000000)">
                <path d="M32.3321875,27.79 C32.2,27.585625 31.9850781,27.4492188 31.7438281,27.4166406 C28.5703125,27.0021094 26.3336719,24.0934375 26.7482031,20.9199219 C27.0410156,18.6782031 28.6107031,16.8114844 30.7689062,16.1382813 C31.2071875,15.9978125 31.4486719,15.5286719 31.3082031,15.0903906 C31.2863281,15.0221875 31.2557812,14.9570312 31.2172656,14.8965625 C29.7609375,12.2682813 27.1714844,10.4607031 24.2022656,9.99992188 C22.7060156,10.0713281 21.2314844,10.3871875 19.8372656,10.9349219 C18.8359375,11.3378906 17.7785937,11.5846875 16.7022656,11.6665625 C15.6259375,11.5846875 14.5685937,11.3378906 13.5672656,10.9349219 C12.1730469,10.3871875 10.6985156,10.0713281 9.20226562,9.99992188 C6.090625,9.99992188 0.035625,14.4115625 0.035625,22.4999219 C0.035625,30.1865625 5.64226562,39.9999219 10.035625,39.9999219 C11.7119531,40.0149219 13.368125,39.6334375 14.8689844,38.8865625 C15.4342187,38.5748437 16.0589844,38.38625 16.7023437,38.3332031 C17.345625,38.38625 17.9704687,38.5748437 18.5357031,38.8865625 C20.0365625,39.6334375 21.6927344,40.0149219 23.3690625,39.9999219 C26.8524219,39.9999219 30.7840625,34.0199219 32.4307031,28.4782813 C32.4996094,28.2455469 32.4636719,27.9941406 32.3321875,27.79 Z" id="Path"></path>
                <path d="M15.8688281,10 C20.9291406,9.99445312 25.03,5.89367187 25.0354688,0.833359375 C25.0354688,0.373125 24.6624219,0 24.2021875,0 C19.141875,0.005546875 15.0410156,4.10632813 15.0355469,9.16664062 C15.0355469,9.626875 15.4085938,10 15.8688281,10 Z" id="Path"></path>
            </g>
        </g>
    </g>
</svg>