<?xml version="1.0" encoding="UTF-8"?>
<svg width="219px" height="100px" viewBox="0 0 219 100" version="1.1" xmlns="http://www.w3.org/2000/svg" xmlns:xlink="http://www.w3.org/1999/xlink">
    <!-- Generator: Sketch 61 (89581) - https://sketch.com -->
    <title>Group 5</title>
    <desc>Created with Sketch.</desc>
    <g id="email-template" stroke="none" stroke-width="1" fill="none" fill-rule="evenodd">
        <g id="Group-5" fill-rule="nonzero">
            <g id="Group-2">
                <g id="Group">
                    <path d="M3.69113109e-14,76.3636364 L3.69113109e-14,0 L24.4865517,0 C30.7156179,0 36.1033213,0.985905634 40.6498236,2.95774647 C45.1963262,4.92958732 48.6866987,7.76182532 51.1210465,11.4545455 C53.5553943,15.1472656 54.7725499,19.5031759 54.7725499,24.5224072 C54.7725499,27.4622426 54.2355694,30.2765551 53.1615925,32.9654288 C52.0876156,35.6543029 50.5840704,38.0921784 48.6509119,40.2791294 C46.7177535,42.46608 44.3908384,44.2765613 41.6700966,45.7106273 L58.961039,76.3636364 L41.3479052,76.3636364 L27.7084665,49.9052496 C26.3480956,49.976953 24.8803491,50.0128042 23.305183,50.0128042 C21.0140322,50.0128042 18.5081236,49.7976974 15.787382,49.3674777 L15.787382,76.3636364 L3.69113109e-14,76.3636364 Z M15.787382,13.5518566 L15.787382,36.0307299 C17.1477528,36.2458397 18.5081032,36.4071699 19.868474,36.5147247 C21.2288448,36.6222797 22.6607925,36.6760564 24.1643602,36.6760564 C28.7466618,36.6760564 32.2907325,35.6542995 34.7966787,33.6107553 C37.3026249,31.5672112 38.5555792,28.7170478 38.5555792,25.0601792 C38.5555792,21.4033108 37.3026249,18.5710728 34.7966787,16.5633803 C32.2907325,14.5556878 28.7466618,13.5518566 24.1643602,13.5518566 L15.787382,13.5518566 Z" id="Combined-Shape" fill="#FF6101"></path>
                    <path d="M83.5507247,77.9220779 C79.3123571,77.9220779 75.397314,77.1693974 71.8054771,75.6640135 C68.2136403,74.1586296 65.0887894,72.0618764 62.4308301,69.3736909 C59.7728709,66.6855055 57.7075956,63.513494 56.2349426,59.8575618 C54.7622896,56.2016296 54.025974,52.2231748 54.025974,47.9220779 C54.025974,43.620981 54.7802483,39.6604473 56.28882,36.0403574 C57.7973914,32.4202678 59.8985844,29.2482564 62.5924618,26.5242286 C65.2863395,23.8002005 68.4471083,21.6855263 72.0748636,20.1801424 C75.7026187,18.6747586 79.6715387,17.9220779 83.9817429,17.9220779 C88.2201104,17.9220779 92.1351535,18.6747586 95.7269904,20.1801424 C99.3188273,21.6855263 102.443678,23.7822795 105.101637,26.4704649 C107.759597,29.1586504 109.824872,32.3127408 111.297525,35.9328306 C112.770178,39.5529205 113.506494,43.5134543 113.506494,47.8145512 C113.506494,52.1156478 112.752219,56.0941026 111.243648,59.7500348 C109.735076,63.4059673 107.633883,66.5958995 104.940006,69.3199273 C102.246128,72.0439553 99.0853592,74.1586296 95.4576039,75.6640135 C91.8298488,77.1693974 87.8609288,77.9220779 83.5507247,77.9220779 Z M83.7662338,64.3736909 C86.4960296,64.3736909 88.9384421,63.6568522 91.0935442,62.2231532 C93.2486462,60.7894543 94.9547431,58.8360688 96.211886,56.3629382 C97.4690288,53.8898075 98.0975909,51.0762156 98.0975909,47.9220779 C98.0975909,44.7679403 97.4690288,41.9543483 96.211886,39.4812177 C94.9547431,37.008087 93.2486462,35.0547016 91.0935442,33.6210026 C88.9384421,32.1873036 86.4960296,31.4704649 83.7662338,31.4704649 C81.0364379,31.4704649 78.5940255,32.1873036 76.4389234,33.6210026 C74.2838213,35.0547016 72.5777244,37.008087 71.3205816,39.4812177 C70.0634387,41.9543483 69.4348766,44.7679403 69.4348766,47.9220779 C69.4348766,51.0762156 70.0634387,53.8898075 71.3205816,56.3629382 C72.5777244,58.8360688 74.2838213,60.7894543 76.4389234,62.2231532 C78.5940255,63.6568522 81.0364379,64.3736909 83.7662338,64.3736909 Z" id="Combined-Shape" fill="#FF6101"></path>
                    <path d="M121.305448,98.1818182 C119.37112,98.1818182 117.544283,97.9847086 115.82488,97.5904834 C114.105478,97.1962582 112.493562,96.5690909 110.989085,95.7089631 L113.890562,83.8822652 C114.678622,84.2406519 115.609951,84.5452758 116.684577,84.7961465 C117.759203,85.0470171 118.762173,85.1724504 119.693516,85.1724504 C121.771127,85.1724504 123.580055,84.6169597 125.120353,83.5059613 C126.660651,82.3949629 127.932273,80.6209758 128.935258,78.1839473 L129.902417,75.7110922 L107.012987,19.4805195 L123.45469,19.4805195 L136.887454,59.6912922 L149.030672,19.4805195 L164.935065,19.4805195 L141.615787,81.624441 C139.466534,87.3586262 136.726277,91.5516865 133.394935,94.203747 C130.063593,96.8558078 126.033804,98.1818182 121.305448,98.1818182 Z" id="Path" fill="#0E0E19"></path>
                    <path d="M188.226049,77.9220779 C183.987682,77.9220779 180.072639,77.1693974 176.480802,75.6640135 C172.888965,74.1586296 169.764114,72.0618764 167.106155,69.3736909 C164.448196,66.6855055 162.38292,63.513494 160.910267,59.8575618 C159.437614,56.2016296 158.701299,52.2231748 158.701299,47.9220779 C158.701299,43.620981 159.455573,39.6604473 160.964145,36.0403574 C162.472716,32.4202678 164.573909,29.2482564 167.267786,26.5242286 C169.961664,23.8002005 173.122433,21.6855263 176.750188,20.1801424 C180.377943,18.6747586 184.346863,17.9220779 188.657068,17.9220779 C192.895435,17.9220779 196.810478,18.6747586 200.402315,20.1801424 C203.994152,21.6855263 207.119003,23.7822795 209.776962,26.4704649 C212.434921,29.1586504 214.500197,32.3127408 215.97285,35.9328306 C217.445503,39.5529205 218.181818,43.5134543 218.181818,47.8145512 C218.181818,52.1156478 217.427544,56.0941026 215.918972,59.7500348 C214.410401,63.4059673 212.309208,66.5958995 209.61533,69.3199273 C206.921453,72.0439553 203.760684,74.1586296 200.132929,75.6640135 C196.505174,77.1693974 192.536254,77.9220779 188.226049,77.9220779 Z M188.441558,64.3736909 C191.171354,64.3736909 193.613767,63.6568522 195.768869,62.2231532 C197.923971,60.7894543 199.630068,58.8360688 200.887211,56.3629382 C202.144354,53.8898075 202.772916,51.0762156 202.772916,47.9220779 C202.772916,44.7679403 202.144354,41.9543483 200.887211,39.4812177 C199.630068,37.008087 197.923971,35.0547016 195.768869,33.6210026 C193.613767,32.1873036 191.171354,31.4704649 188.441558,31.4704649 C185.711763,31.4704649 183.26935,32.1873036 181.114248,33.6210026 C178.959146,35.0547016 177.253049,37.008087 175.995906,39.4812177 C174.738763,41.9543483 174.110201,44.7679403 174.110201,47.9220779 C174.110201,51.0762156 174.738763,53.8898075 175.995906,56.3629382 C177.253049,58.8360688 178.959146,60.7894543 181.114248,62.2231532 C183.26935,63.6568522 185.711763,64.3736909 188.441558,64.3736909 Z" id="Combined-Shape" fill="#0E0E19"></path>
                </g>
                <path d="M156.864416,96.1423377 C156.111858,96.1423377 155.423553,96.0322088 154.799481,95.8119481 C154.175408,95.5916873 153.629353,95.275067 153.161299,94.8620779 C152.693244,94.4490888 152.330737,93.9672756 152.073766,93.4166234 C151.816795,92.8659712 151.688312,92.2602631 151.688312,91.5994805 C151.688312,90.681727 151.936101,89.8741161 152.431688,89.1766234 C152.927275,88.4791306 153.624757,87.9330756 154.524156,87.5384416 C155.423554,87.1438075 156.469778,86.9464935 157.662857,86.9464935 C158.268575,86.9464935 158.842162,87.0015579 159.383636,87.1116883 C159.925111,87.2218187 160.452811,87.3778345 160.966753,87.5797403 L160.966753,86.7262338 C160.966753,85.9002556 160.73273,85.2303057 160.264675,84.7163636 C159.796621,84.2024216 159.158792,83.9454545 158.351169,83.9454545 C157.745451,83.9454545 157.194808,84.0968816 156.699221,84.3997403 C156.203634,84.702599 155.854893,85.1293478 155.652987,85.68 L152.211429,84.9916883 C152.413334,84.1473551 152.812551,83.4085745 153.409091,82.7753247 C154.005631,82.1420748 154.735234,81.6510839 155.597922,81.3023377 C156.46061,80.9535914 157.396705,80.7792208 158.406234,80.7792208 C159.342342,80.7792208 160.19584,80.9260592 160.966753,81.2197403 C161.737666,81.5134213 162.403028,81.9355816 162.962857,82.4862338 C163.522687,83.036886 163.954024,83.6838925 164.256883,84.4272727 C164.559742,85.170653 164.711169,86.0012075 164.711169,86.918961 L164.711169,95.7293506 L161.26961,95.7293506 L161.159481,94.0223377 C160.774024,94.6464101 160.214203,95.1557556 159.48,95.5503896 C158.745797,95.9450236 157.873944,96.1423377 156.864416,96.1423377 Z M155.487792,91.4067532 C155.487792,91.9206953 155.698872,92.3428556 156.121039,92.6732468 C156.543205,93.0036379 157.103027,93.1688312 157.800519,93.1688312 C158.406237,93.1688312 158.947703,93.0403475 159.424935,92.7833766 C159.902167,92.5264057 160.27844,92.1730758 160.553766,91.7233766 C160.829092,91.2736774 160.966753,90.7735094 160.966753,90.2228571 L160.966753,90.0851948 C160.562942,89.9199992 160.131604,89.786927 159.672727,89.685974 C159.213851,89.585021 158.754981,89.5345455 158.296104,89.5345455 C157.433416,89.5345455 156.749699,89.7043273 156.244935,90.0438961 C155.740171,90.3834649 155.487792,90.837746 155.487792,91.4067532 Z M166.959119,99.7719481 L166.959119,81.1922078 L170.510808,81.1922078 L170.620937,83.3122078 C171.116524,82.5229397 171.777297,81.9034655 172.603275,81.4537662 C173.429253,81.004067 174.337816,80.7792208 175.328989,80.7792208 C176.283453,80.7792208 177.164483,80.9719462 177.972106,81.3574026 C178.779729,81.742859 179.486389,82.2797369 180.092106,82.9680519 C180.697824,83.656367 181.170459,84.4593894 181.510028,85.3771429 C181.849597,86.2948964 182.019379,87.2952327 182.019379,88.3781818 C182.019379,89.479486 181.845008,90.4981771 181.496262,91.4342857 C181.147516,92.3703943 180.661114,93.1917714 180.037041,93.8984416 C179.412969,94.6051117 178.678777,95.1557556 177.834444,95.5503896 C176.990111,95.9450236 176.081548,96.1423377 175.10873,96.1423377 C174.209331,96.1423377 173.392543,95.9633784 172.65834,95.6054545 C171.924137,95.2475306 171.309252,94.7473626 170.813665,94.1049351 L170.813665,99.7719481 L166.959119,99.7719481 Z M174.680158,92.6732468 C175.377651,92.6732468 176.001714,92.4896987 176.552366,92.1225974 C177.103018,91.7554961 177.538944,91.2553278 177.860158,90.6220779 C178.181372,89.9888281 178.341976,89.2684023 178.341976,88.4607792 C178.341976,87.6531561 178.181372,86.9327304 177.860158,86.2994805 C177.538944,85.6662306 177.103018,85.1660623 176.552366,84.798961 C176.001714,84.4318597 175.377651,84.2483117 174.680158,84.2483117 C173.982665,84.2483117 173.358603,84.4318597 172.80795,84.798961 C172.257298,85.1660623 171.821372,85.6662306 171.500158,86.2994805 C171.178944,86.9327304 171.01834,87.6531561 171.01834,88.4607792 C171.01834,89.2684023 171.178944,89.9888281 171.500158,90.6220779 C171.821372,91.2553278 172.257298,91.7554961 172.80795,92.1225974 C173.358603,92.4896987 173.982665,92.6732468 174.680158,92.6732468 Z M184.236161,99.7719481 L184.236161,81.1922078 L187.787849,81.1922078 L187.897979,83.3122078 C188.393566,82.5229397 189.054338,81.9034655 189.880316,81.4537662 C190.706295,81.004067 191.614857,80.7792208 192.606031,80.7792208 C193.560494,80.7792208 194.441524,80.9719462 195.249148,81.3574026 C196.056771,81.742859 196.76343,82.2797369 197.369148,82.9680519 C197.974865,83.656367 198.447501,84.4593894 198.78707,85.3771429 C199.126638,86.2948964 199.29642,87.2952327 199.29642,88.3781818 C199.29642,89.479486 199.12205,90.4981771 198.773303,91.4342857 C198.424557,92.3703943 197.938155,93.1917714 197.314083,93.8984416 C196.69001,94.6051117 195.955818,95.1557556 195.111485,95.5503896 C194.267152,95.9450236 193.35859,96.1423377 192.385771,96.1423377 C191.486372,96.1423377 190.669584,95.9633784 189.935381,95.6054545 C189.201178,95.2475306 188.586293,94.7473626 188.090706,94.1049351 L188.090706,99.7719481 L184.236161,99.7719481 Z M191.697459,92.6732468 C192.394952,92.6732468 193.019015,92.4896987 193.569667,92.1225974 C194.120319,91.7554961 194.556245,91.2553278 194.877459,90.6220779 C195.198673,89.9888281 195.359277,89.2684023 195.359277,88.4607792 C195.359277,87.6531561 195.198673,86.9327304 194.877459,86.2994805 C194.556245,85.6662306 194.120319,85.1660623 193.569667,84.798961 C193.019015,84.4318597 192.394952,84.2483117 191.697459,84.2483117 C190.999966,84.2483117 190.375904,84.4318597 189.825251,84.798961 C189.274599,85.1660623 188.838673,85.6662306 188.517459,86.2994805 C188.196245,86.9327304 188.035641,87.6531561 188.035641,88.4607792 C188.035641,89.2684023 188.196245,89.9888281 188.517459,90.6220779 C188.838673,91.2553278 189.274599,91.7554961 189.825251,92.1225974 C190.375904,92.4896987 190.999966,92.6732468 191.697459,92.6732468 Z M206.48463,96.1423377 C205.456746,96.1423377 204.525241,95.9771444 203.690085,95.6467532 C202.854929,95.3163621 202.14827,94.8483148 201.570085,94.2425974 C200.9919,93.63688 200.592683,92.9210431 200.372423,92.0950649 L203.841514,91.3516883 C204.025064,91.9206956 204.35545,92.3703881 204.832682,92.7007792 C205.309914,93.0311704 205.878913,93.1963636 206.539695,93.1963636 C207.163768,93.1963636 207.677702,93.0587026 208.081514,92.7833766 C208.485325,92.5080506 208.687228,92.1317774 208.687228,91.6545455 C208.687228,91.250734 208.508269,90.915759 208.150345,90.6496104 C207.792421,90.3834618 207.200479,90.1769704 206.374501,90.0301299 L205.603591,89.8924675 C204.025055,89.6171416 202.827405,89.1032073 202.010604,88.3506494 C201.193804,87.5980914 200.78541,86.6436421 200.78541,85.4872727 C200.78541,84.5695192 201.024022,83.7573195 201.501254,83.0506494 C201.978486,82.3439792 202.639258,81.7887465 203.483591,81.3849351 C204.327925,80.9811236 205.300729,80.7792208 206.402033,80.7792208 C207.374852,80.7792208 208.260471,80.9398252 209.058916,81.261039 C209.857362,81.5822527 210.522723,82.0365338 211.05502,82.6238961 C211.587317,83.2112584 211.954413,83.9179179 212.156319,84.7438961 L208.71476,85.4597403 C208.53121,84.9090881 208.232944,84.4777504 207.819955,84.1657143 C207.406966,83.8536782 206.925153,83.6976623 206.374501,83.6976623 C205.805493,83.6976623 205.337446,83.8353234 204.970345,84.1106494 C204.603243,84.3859753 204.419695,84.7347166 204.419695,85.1568831 C204.419695,85.5239844 204.598655,85.8314273 204.956578,86.0792208 C205.314502,86.3270143 205.924799,86.5243283 206.787488,86.6711688 L207.558397,86.8088312 C209.118578,87.0841571 210.311639,87.6026803 211.137617,88.3644156 C211.963596,89.1261509 212.376578,90.0943665 212.376578,91.2690909 C212.376578,91.9849387 212.234329,92.6365338 211.949825,93.2238961 C211.665322,93.8112584 211.256928,94.3251927 210.72463,94.7657143 C210.192333,95.2062358 209.56827,95.5457997 208.852423,95.7844156 C208.136575,96.0230314 207.347319,96.1423377 206.48463,96.1423377 Z" id="apps" fill="#0E0E19"></path>
            </g>
        </g>
    </g>
</svg>